<svg width="1222" height="236" viewBox="0 0 1222 236" fill="none" xmlns="http://www.w3.org/2000/svg">
<path d="M24.1513 232.158H0.0113289V4.3582H104.731C154.031 4.3582 188.711 32.5782 188.711 81.1982C188.711 130.158 154.031 158.378 104.731 158.378H24.1513V232.158ZM102.691 26.4582H24.1513V136.278H102.691C142.811 136.278 164.231 119.958 164.231 81.1982C164.231 43.1182 142.811 26.4582 102.691 26.4582ZM321.256 235.558C253.596 235.558 206.336 189.318 206.336 118.258C206.336 47.1982 253.596 0.958201 321.256 0.958201C389.596 0.958201 436.856 47.1982 436.856 118.258C436.856 189.318 389.596 235.558 321.256 235.558ZM321.256 212.098C379.056 212.098 411.356 180.138 411.356 118.258C411.356 56.3782 379.056 24.4182 321.256 24.4182C263.796 24.4182 231.836 56.3782 231.836 118.258C231.836 180.138 263.796 212.098 321.256 212.098ZM556.211 232.158H520.171L454.211 4.3582H481.071L526.291 161.438L538.191 208.018H540.231L553.831 161.438L606.871 4.3582H640.871L699.352 161.438L714.652 208.018H716.352L726.891 161.438L766.672 4.3582H793.191L734.371 232.158H698.331L642.911 83.9182L624.891 30.8782H622.511L606.531 83.9182L556.211 232.158ZM992.524 232.158H819.464V4.3582H992.524V26.4582H843.604V106.698H987.424V128.458H843.604V210.058H992.524V232.158ZM1050.46 232.158H1026.32V4.3582H1137.84C1185.44 4.3582 1217.74 28.4982 1217.74 70.3182C1217.74 108.738 1189.52 132.538 1147.36 133.558V135.258C1162.32 139.338 1170.82 149.198 1178.64 162.458L1221.48 232.158H1193.6L1153.14 166.198C1141.58 147.158 1129.68 138.998 1099.42 138.998H1050.46V232.158ZM1050.46 26.4582V119.618H1137.5C1173.54 119.618 1192.58 105.338 1192.58 73.0382C1192.58 40.7382 1173.54 26.4582 1137.5 26.4582H1050.46Z" fill="url(#paint0_linear_1098_2)" fill-opacity="0.3"/>
<defs>
<linearGradient id="paint0_linear_1098_2" x1="555.532" y1="-53.4819" x2="555.532" y2="271.018" gradientUnits="userSpaceOnUse">
<stop stop-color="white"/>
<stop offset="1" stop-color="#999999" stop-opacity="0"/>
</linearGradient>
</defs>
</svg>
